<svg width="123" height="120" viewBox="0 0 123 120" fill="none" xmlns="http://www.w3.org/2000/svg">
<path d="M90.848 120C96.7016 120 101.447 115.576 101.447 110.118C101.447 104.66 96.7016 100.235 90.848 100.235C84.9943 100.235 80.249 104.66 80.249 110.118C80.249 115.576 84.9943 120 90.848 120Z" fill="black"/>
<path d="M42.3957 120C48.2493 120 52.9946 115.576 52.9946 110.118C52.9946 104.66 48.2493 100.235 42.3957 100.235C36.5421 100.235 31.7968 104.66 31.7968 110.118C31.7968 115.576 36.5421 120 42.3957 120Z" fill="black"/>
<path d="M21.7429 15.1906L20.5316 29.0259C20.2894 31.68 22.5303 33.8824 25.3769 33.8824H118.102C120.646 33.8824 122.766 32.0753 122.948 29.7035C123.735 19.7082 115.559 11.5765 104.839 11.5765H30.4038C29.7981 9.09176 28.5868 6.72 26.7093 4.74353C23.681 1.75059 19.4415 0 15.0808 0H4.5424C2.05922 0 0 1.92 0 4.23529C0 6.55059 2.05922 8.47059 4.5424 8.47059H15.0808C16.9583 8.47059 18.7147 9.20471 19.9866 10.4471C21.2584 11.7459 21.8641 13.44 21.7429 15.1906Z" fill="black"/>
<path d="M116.649 42.3529H23.7419C21.1982 42.3529 19.139 44.16 18.8967 46.4753L16.7163 71.04C15.8684 80.6965 23.9842 88.9412 34.3409 88.9412H101.69C110.775 88.9412 118.769 81.9953 119.435 73.5247L121.434 47.1529C121.676 44.5553 119.496 42.3529 116.649 42.3529Z" fill="black"/>
</svg>
