<svg width="40" height="38" viewBox="0 0 40 38" fill="none" xmlns="http://www.w3.org/2000/svg">
<path d="M35.6131 9.1114L24.2485 1.48979C21.1508 -0.590551 16.3958 -0.477078 13.4166 1.73565L3.53172 9.13031C1.55869 10.6055 0 13.6314 0 16.0143V29.0637C0 33.8863 4.08417 37.82 9.1154 37.82H30.3846C35.4158 37.82 39.5 33.9052 39.5 29.0826V16.2601C39.5 13.7071 37.7835 10.5676 35.6131 9.1114ZM21.2297 30.2551C21.2297 31.0305 20.5589 31.6735 19.75 31.6735C18.941 31.6735 18.2702 31.0305 18.2702 30.2551V24.5815C18.2702 23.8061 18.941 23.1631 19.75 23.1631C20.5589 23.1631 21.2297 23.8061 21.2297 24.5815V30.2551Z" fill="black"/>
</svg>
