<svg width="40" height="38" viewBox="0 0 40 38" fill="none" xmlns="http://www.w3.org/2000/svg">
<path d="M39.5 18.91C39.5 8.49059 30.6323 0 19.75 0C8.86775 0 0 8.49059 0 18.91C0 24.3939 2.46875 29.3294 6.37925 32.7899C6.37925 32.8089 6.37925 32.8089 6.3595 32.8278C6.557 33.0169 6.794 33.1681 6.9915 33.3383C7.11 33.4329 7.20875 33.5274 7.32725 33.6031C7.68275 33.8867 8.07775 34.1515 8.453 34.4162C8.59125 34.5108 8.70975 34.5864 8.848 34.6809C9.22325 34.9268 9.61825 35.1537 10.033 35.3617C10.1712 35.4373 10.3293 35.5319 10.4675 35.6075C10.8625 35.8155 11.2772 36.0046 11.7117 36.1748C11.8697 36.2505 12.0278 36.3261 12.1858 36.3828C12.6203 36.553 13.0548 36.7043 13.4893 36.8367C13.6473 36.8934 13.8052 36.9501 13.9632 36.988C14.4372 37.1203 14.9113 37.2338 15.3853 37.3473C15.5235 37.3851 15.6618 37.4229 15.8198 37.4418C16.3728 37.5553 16.9257 37.6309 17.4985 37.6876C17.5775 37.6876 17.6565 37.7065 17.7355 37.7255C18.407 37.7822 19.0785 37.82 19.75 37.82C20.4215 37.82 21.093 37.7822 21.7448 37.7255C21.8238 37.7255 21.9028 37.7065 21.9818 37.6876C22.5545 37.6309 23.1075 37.5553 23.6605 37.4418C23.7987 37.4229 23.937 37.3662 24.095 37.3473C24.569 37.2338 25.0628 37.1392 25.517 36.988C25.675 36.9312 25.833 36.8745 25.991 36.8367C26.4255 36.6854 26.8797 36.553 27.2945 36.3828C27.4525 36.3261 27.6105 36.2505 27.7685 36.1748C28.1832 36.0046 28.598 35.8155 29.0128 35.6075C29.1708 35.5319 29.309 35.4373 29.4473 35.3617C29.8423 35.1348 30.2373 34.9268 30.6323 34.6809C30.7705 34.6053 30.889 34.5108 31.0272 34.4162C31.4222 34.1515 31.7975 33.8867 32.153 33.6031C32.2715 33.5085 32.3703 33.414 32.4888 33.3383C32.706 33.1681 32.9233 32.998 33.1208 32.8278C33.1208 32.8089 33.1208 32.8089 33.101 32.7899C37.0313 29.3294 39.5 24.3939 39.5 18.91ZM29.5065 28.3083C24.1543 24.8666 15.3853 24.8666 9.9935 28.3083C9.1245 28.8567 8.4135 29.4996 7.821 30.1993C4.819 27.2871 2.9625 23.2971 2.9625 18.91C2.9625 10.0412 10.4873 2.8365 19.75 2.8365C29.0128 2.8365 36.5375 10.0412 36.5375 18.91C36.5375 23.2971 34.681 27.2871 31.679 30.1993C31.1063 29.4996 30.3755 28.8567 29.5065 28.3083Z" fill="black"/>
<path d="M19.75 9.32204C15.6618 9.32204 12.3438 12.4989 12.3438 16.4133C12.3438 20.252 15.484 23.3722 19.6512 23.4857H19.829H19.9672H20.0068C23.9963 23.3533 27.1365 20.252 27.1562 16.4133C27.1562 12.4989 23.8383 9.32204 19.75 9.32204Z" fill="black"/>
</svg>
